<?xml version="1.0" standalone="no"?>
<!DOCTYPE svg PUBLIC "-//W3C//DTD SVG 20010904//EN"
 "http://www.w3.org/TR/2001/REC-SVG-20010904/DTD/svg10.dtd">
<svg version="1.0" xmlns="http://www.w3.org/2000/svg"
 width="500.000000pt" height="500.000000pt" viewBox="0 0 500.000000 500.000000"
 preserveAspectRatio="xMidYMid meet">

<g transform="translate(0.000000,500.000000) scale(0.100000,-0.100000)"
fill="#000000" stroke="none">
<path d="M1667 4764 c-65 -20 -133 -90 -152 -159 -11 -39 -14 -140 -16 -470 0
-231 0 -433 0 -450 1 -16 1 -543 2 -1170 1 -1105 2 -1142 21 -1192 28 -77 92
-138 157 -152 71 -15 1760 -15 1815 0 57 16 131 90 153 152 17 49 18 137 18
1647 0 1282 -3 1603 -13 1638 -16 52 -71 116 -126 145 -35 18 -63 22 -179 25
l-138 4 31 -30 c16 -17 30 -39 30 -49 0 -33 21 -43 93 -43 84 0 128 -23 157
-81 20 -37 20 -66 20 -1514 l0 -1475 -953 0 -954 0 -7 1333 c-6 1362 -4 1611
20 1658 7 15 27 38 44 53 29 23 40 26 115 26 l83 0 6 34 c4 21 19 45 37 60
l31 26 -124 -1 c-78 0 -140 -6 -171 -15z m962 -3370 c-6 -8 -9 -17 -5 -21 3
-3 6 -1 6 6 0 7 5 9 10 6 16 -10 12 -40 -8 -59 -18 -15 -19 -15 -30 8 -11 26
-5 67 12 78 16 11 28 -3 15 -18z"/>
<path d="M3056 469 c-8 -48 -2 -59 30 -59 22 0 24 4 24 44 0 31 -5 46 -16 50
-27 10 -31 7 -38 -35z"/>
<path d="M2010 445 l0 -54 -50 6 c-61 7 -95 -12 -117 -65 -28 -66 2 -142 63
-162 29 -10 41 -9 74 8 31 15 40 16 40 6 0 -8 11 -14 26 -14 l25 0 -6 73 c-4
39 -14 83 -23 97 -14 23 -14 24 1 11 16 -12 17 -7 17 68 0 80 0 81 -25 81 -24
0 -25 -3 -25 -55z m-16 -117 c22 -30 20 -60 -4 -86 -40 -43 -100 -19 -100 40
0 62 71 93 104 46z"/>
<path d="M3320 434 l0 -65 -22 15 c-48 34 -109 11 -134 -50 -28 -67 -8 -128
52 -160 30 -16 35 -17 73 -2 23 9 41 12 41 7 0 -5 9 -9 20 -9 19 0 20 7 20
165 l0 165 -25 0 c-24 0 -25 -2 -25 -66z m-22 -100 c25 -17 31 -81 10 -102
-16 -16 -70 -16 -86 0 -15 15 -16 72 -2 99 13 23 47 25 78 3z"/>
<path d="M3440 335 l0 -165 30 0 30 0 0 165 0 165 -30 0 -30 0 0 -165z"/>
<path d="M1330 465 c0 -22 4 -25 39 -25 26 0 41 -5 45 -16 3 -9 6 -69 6 -135
l0 -119 25 0 24 0 3 133 3 132 53 3 c48 3 52 5 52 28 l0 24 -125 0 -125 0 0
-25z"/>
<path d="M2211 483 c-52 -21 -101 -96 -103 -155 -1 -51 18 -91 61 -133 27 -25
39 -29 86 -29 66 0 99 21 132 84 40 75 24 150 -42 209 -28 25 -44 31 -78 30
-23 0 -48 -3 -56 -6z m116 -80 c26 -32 32 -116 10 -144 -30 -39 -96 -51 -134
-24 -45 32 -38 169 9 193 36 18 90 6 115 -25z"/>
<path d="M2510 466 c0 -22 5 -25 43 -28 l42 -3 3 -132 3 -133 29 0 30 0 0 135
0 135 55 0 c52 0 55 1 55 25 l0 25 -130 0 -130 0 0 -24z"/>
<path d="M1632 380 c-69 -42 -70 -145 -2 -197 41 -32 145 -23 145 12 0 17 -7
19 -47 16 -36 -2 -51 2 -67 18 -35 35 -26 41 59 41 78 0 80 1 80 24 0 42 -18
74 -49 91 -41 20 -79 19 -119 -5z m98 -39 c15 -30 14 -31 -40 -31 -54 0 -59 4
-33 32 21 24 60 23 73 -1z"/>
<path d="M2824 390 c-38 -15 -74 -68 -74 -109 0 -106 147 -161 214 -80 85 101
-17 239 -140 189z m93 -62 c30 -28 29 -63 -3 -94 -19 -20 -31 -24 -52 -19 -40
9 -56 30 -56 71 0 62 64 86 111 42z"/>
<path d="M3068 392 c-16 -3 -18 -17 -18 -113 l0 -109 30 0 30 0 0 109 c0 112
-4 122 -42 113z"/>
<path d="M3614 391 c-38 -17 -64 -60 -64 -108 0 -38 6 -51 33 -78 41 -41 72
-50 125 -35 51 13 48 40 -5 40 -47 0 -92 25 -93 53 0 4 34 7 75 7 l75 0 0 34
c0 49 -34 86 -85 91 -22 3 -50 1 -61 -4z m68 -48 c28 -25 22 -33 -27 -33 -48
0 -55 9 -29 34 20 20 33 20 56 -1z"/>
</g>
</svg>
