<?xml version="1.0" standalone="no"?>
<!DOCTYPE svg PUBLIC "-//W3C//DTD SVG 20010904//EN"
 "http://www.w3.org/TR/2001/REC-SVG-20010904/DTD/svg10.dtd">
<svg version="1.0" xmlns="http://www.w3.org/2000/svg"
 width="500.000000pt" height="500.000000pt" viewBox="0 0 500.000000 500.000000"
 preserveAspectRatio="xMidYMid meet">

<g transform="translate(0.000000,500.000000) scale(0.100000,-0.100000)"
fill="#000000" stroke="none">
<path d="M460 3287 c-72 -22 -143 -58 -185 -95 -42 -36 -103 -119 -130 -175
-41 -88 -47 -173 -43 -624 l4 -408 31 -70 c36 -79 114 -174 192 -233 73 -54
200 -95 300 -96 l74 0 -7 -96 c-3 -52 -9 -123 -13 -158 l-6 -62 74 43 c187
111 229 137 364 227 22 15 49 30 60 34 11 4 494 7 1075 6 969 0 1140 3 1303
26 56 8 58 2 24 -77 -34 -78 -49 -164 -37 -217 25 -105 72 -154 203 -209 44
-19 109 -47 145 -63 35 -17 66 -30 70 -30 4 0 34 -13 67 -29 143 -68 200 -84
272 -79 97 7 143 35 192 118 37 62 130 282 186 440 14 41 41 113 59 160 216
555 256 664 256 702 0 42 -35 98 -73 116 -50 24 -701 182 -753 183 -54 1 -84
-10 -121 -44 -13 -11 -23 -16 -23 -11 -1 387 -16 450 -145 596 -46 51 -122 97
-212 127 -62 21 -70 21 -1595 20 l-1533 0 -75 -22z m3209 -124 c98 -49 170
-122 204 -205 25 -62 25 -69 27 -358 l3 -295 -37 -85 c-21 -47 -50 -114 -66
-150 -135 -311 -125 -293 -172 -317 -24 -13 -76 -27 -118 -32 -43 -5 -548 -8
-1195 -6 l-1120 4 -70 -44 c-38 -24 -106 -65 -150 -91 -44 -26 -89 -55 -100
-64 -46 -39 -46 -38 -39 79 l7 111 -126 0 c-148 0 -209 11 -296 54 -74 36
-118 83 -169 181 l-37 70 -3 405 c-4 488 -1 511 91 634 41 54 84 84 172 118
l70 27 1525 0 1525 1 74 -37z m737 -704 c110 -28 217 -55 239 -60 123 -26 200
-49 224 -67 24 -18 26 -25 26 -90 0 -56 -4 -76 -21 -99 -12 -16 -25 -40 -29
-53 -4 -14 -19 -50 -33 -80 -56 -124 -133 -326 -126 -333 5 -4 -73 -207 -121
-317 -13 -30 -43 -108 -66 -172 -40 -111 -44 -118 -76 -129 -39 -12 -77 -6
-153 27 -30 13 -109 44 -175 69 -190 73 -333 136 -349 154 -8 9 -19 34 -25 57
-14 52 -5 81 109 339 10 22 21 51 25 65 4 14 18 45 30 70 38 74 95 207 95 219
0 6 4 19 10 29 39 71 105 236 114 287 13 66 59 135 92 135 6 0 101 -23 210
-51z"/>
<path d="M2364 3028 c-37 -25 -51 -42 -60 -73 -7 -26 -13 -193 -16 -468 -5
-422 -5 -429 16 -470 24 -49 83 -87 135 -87 43 0 119 38 140 69 8 14 20 60 26
103 l10 78 110 -104 c120 -114 154 -132 230 -120 72 10 115 65 115 145 0 59
-17 83 -139 202 -61 60 -111 112 -111 117 0 5 6 13 14 17 25 15 201 184 213
206 33 60 -2 151 -72 185 -25 12 -58 22 -73 22 -48 0 -120 -44 -201 -123 -43
-42 -81 -77 -84 -77 -2 0 -6 66 -8 148 -5 171 -15 200 -88 239 -61 32 -99 30
-157 -9z m144 -8 c63 -29 72 -57 72 -242 0 -84 3 -163 6 -175 5 -19 19 -9 117
89 62 60 122 114 135 119 33 13 109 11 135 -3 30 -16 45 -36 57 -80 16 -56 -1
-82 -130 -205 l-115 -110 118 -114 c136 -131 151 -154 144 -217 -8 -77 -84
-127 -161 -108 -14 3 -85 62 -157 131 -73 69 -136 125 -141 125 -4 0 -8 -43
-8 -96 l0 -96 -39 -39 c-35 -35 -44 -39 -90 -39 -29 0 -65 7 -81 15 -58 30
-60 44 -60 515 0 451 2 471 47 512 44 40 90 46 151 18z"/>
<path d="M452 2990 c-65 -15 -112 -80 -112 -154 0 -66 14 -91 66 -122 39 -23
60 -28 146 -32 l99 -5 -2 -324 c-2 -308 -1 -326 18 -351 32 -43 69 -65 121
-70 65 -6 115 18 150 72 l27 41 3 323 3 322 102 0 c107 0 127 6 171 54 65 73
42 182 -49 233 -39 22 -45 23 -375 22 -184 -1 -350 -5 -368 -9z m746 -40 c33
-21 62 -71 62 -110 0 -11 -9 -38 -20 -59 -27 -55 -74 -71 -200 -71 l-100 0 0
-330 c0 -209 -4 -337 -11 -352 -18 -41 -69 -68 -130 -68 -61 0 -91 16 -114 60
-12 24 -15 86 -15 360 l0 330 -100 0 c-125 0 -168 15 -199 71 -17 29 -21 47
-16 71 9 41 44 94 70 107 12 6 167 10 380 10 344 1 361 0 393 -19z"/>
<path d="M1639 2845 c-155 -39 -243 -110 -311 -251 -67 -139 -63 -292 10 -424
63 -113 136 -170 272 -216 123 -40 307 -9 411 72 102 78 144 140 173 251 47
182 -13 357 -163 479 -105 84 -266 121 -392 89z m251 -35 c49 -13 126 -66 182
-123 136 -140 156 -365 46 -527 -79 -117 -195 -187 -324 -196 -160 -13 -275
29 -377 137 -168 178 -154 454 32 621 57 51 119 85 181 98 52 11 209 5 260
-10z"/>
<path d="M1664 2575 c-53 -24 -92 -77 -99 -139 -14 -110 24 -186 111 -222 77
-32 163 -3 212 72 27 40 32 57 32 106 0 92 -35 153 -105 182 -45 19 -109 19
-151 1z m142 -21 c108 -52 125 -198 32 -286 -34 -34 -45 -38 -89 -38 -94 0
-159 60 -167 154 -5 59 9 94 55 140 48 49 107 59 169 30z"/>
<path d="M3375 2825 c-87 -31 -137 -75 -175 -157 -42 -89 -42 -171 1 -257 32
-64 96 -123 149 -136 14 -4 48 -16 75 -28 l50 -22 -101 -6 c-115 -6 -155 -23
-186 -79 -29 -54 -20 -113 26 -159 l36 -36 155 -3 c214 -5 290 18 362 109 50
64 69 137 54 217 -20 108 -67 161 -206 233 -55 28 -104 55 -109 60 -23 21 69
23 173 3 69 -13 131 46 131 126 0 111 -66 152 -250 157 -101 2 -123 -1 -185
-22z m326 -14 c71 -28 109 -98 85 -156 -25 -58 -47 -66 -163 -59 -106 7 -163
-4 -163 -32 0 -15 12 -23 130 -79 113 -54 163 -95 190 -158 56 -130 2 -269
-134 -339 -35 -19 -63 -22 -192 -26 -206 -6 -235 5 -258 101 -9 36 26 105 60
117 14 6 76 10 137 10 117 0 142 6 132 32 -8 20 -35 33 -118 58 -85 26 -124
50 -161 96 -54 69 -69 162 -39 250 36 108 106 170 218 194 48 11 243 4 276 -9z"/>
</g>
</svg>
